<?xml version="1.0" encoding="UTF-8" standalone="no"?>
<!-- Generator: Adobe Illustrator 21.1.0, SVG Export Plug-In . SVG Version: 6.00 Build 0)  -->

<svg
   xmlns:dc="http://purl.org/dc/elements/1.1/"
   xmlns:cc="http://creativecommons.org/ns#"
   xmlns:rdf="http://www.w3.org/1999/02/22-rdf-syntax-ns#"
   xmlns:svg="http://www.w3.org/2000/svg"
   xmlns="http://www.w3.org/2000/svg"
   xmlns:sodipodi="http://sodipodi.sourceforge.net/DTD/sodipodi-0.dtd"
   xmlns:inkscape="http://www.inkscape.org/namespaces/inkscape"
   version="1.1"
   id="Layer_1"
   x="0px"
   y="0px"
   viewBox="0 0 1841 774.9"
   xml:space="preserve"
   sodipodi:docname="crystal-redrawn-logo.svg"
   width="1841"
   height="774.90002"
   inkscape:version="0.92.4 (5da689c313, 2019-01-14)"><metadata
   id="metadata4754"><rdf:RDF><cc:Work
       rdf:about=""><dc:format>image/svg+xml</dc:format><dc:type
         rdf:resource="http://purl.org/dc/dcmitype/StillImage" /><dc:title></dc:title></cc:Work></rdf:RDF></metadata><defs
   id="defs4752" /><sodipodi:namedview
   pagecolor="#ffffff"
   bordercolor="#666666"
   borderopacity="1"
   objecttolerance="10"
   gridtolerance="10"
   guidetolerance="10"
   inkscape:pageopacity="0"
   inkscape:pageshadow="2"
   inkscape:window-width="2160"
   inkscape:window-height="1377"
   id="namedview4750"
   showgrid="false"
   fit-margin-top="0"
   fit-margin-left="0"
   fit-margin-right="0"
   fit-margin-bottom="0"
   inkscape:zoom="0.58194888"
   inkscape:cx="639.8965"
   inkscape:cy="528.32743"
   inkscape:window-x="-9"
   inkscape:window-y="25"
   inkscape:window-maximized="1"
   inkscape:current-layer="g4747" />
<style
   type="text/css"
   id="style4637">
	.st0{fill:#4A9ABB;}
	.st1{fill:none;stroke:#7A7A7A;stroke-width:8;stroke-linejoin:round;stroke-miterlimit:10;}
	.st2{fill:none;stroke:#7A7A7A;stroke-width:8;stroke-linecap:round;stroke-linejoin:round;}
	.st3{fill:none;stroke:#7A7A7A;stroke-width:8;stroke-linecap:round;stroke-linejoin:round;stroke-dasharray:19.7581,19.7581;}
	.st4{fill:none;stroke:#7A7A7A;stroke-width:8;stroke-linecap:round;stroke-linejoin:round;stroke-dasharray:21.0313,21.0313;}
	.st5{fill:none;stroke:#7A7A7A;stroke-width:8;stroke-linecap:round;stroke-linejoin:round;stroke-dasharray:20.9277,20.9277;}
	.st6{fill:none;stroke:#7A7A7A;stroke-width:8;stroke-linecap:round;stroke-linejoin:round;stroke-dasharray:20.9999,20.9999;}
	.st7{fill:none;stroke:#7A7A7A;stroke-width:8;stroke-linecap:round;stroke-linejoin:round;stroke-dasharray:20.987,20.987;}
	.st8{fill:none;stroke:#7A7A7A;stroke-width:8;stroke-linecap:round;stroke-linejoin:round;stroke-dasharray:19.9943,19.9943;}
	.st9{fill:none;stroke:#7A7A7A;stroke-width:8;stroke-linecap:round;stroke-linejoin:round;stroke-dasharray:21.0213,21.0213;}
	.st10{fill:none;stroke:#7A7A7A;stroke-width:8;stroke-linecap:round;stroke-linejoin:round;stroke-dasharray:22.0243,22.0243;}
	.st11{fill:#333333;}
</style>
<g
   id="g4747"
   transform="translate(-66.3,-66.8)">
	<g
   id="g4651">
			<path
   style="fill:#4a9abb"
   inkscape:connector-curvature="0"
   id="path4639"
   d="M 1059.8,805.1 V 646.9 h 67.2 c 16.9,0 29.2,1.4 36.9,4.3 7.7,2.8 13.8,7.9 18.4,15.2 4.6,7.3 6.9,15.6 6.9,24.9 0,11.9 -3.5,21.7 -10.5,29.4 -7,7.7 -17.4,12.6 -31.3,14.6 6.9,4 12.6,8.5 17.1,13.3 4.5,4.8 10.6,13.4 18.2,25.7 l 19.3,30.9 h -38.2 l -23.1,-34.4 c -8.2,-12.3 -13.8,-20.1 -16.8,-23.3 -3,-3.2 -6.2,-5.4 -9.6,-6.6 -3.4,-1.2 -8.7,-1.8 -16.1,-1.8 h -6.5 v 66 z m 31.9,-91.3 h 23.6 c 15.3,0 24.9,-0.6 28.7,-1.9 3.8,-1.3 6.8,-3.5 9,-6.7 2.2,-3.2 3.2,-7.1 3.2,-11.9 0,-5.3 -1.4,-9.6 -4.3,-12.9 -2.8,-3.3 -6.9,-5.3 -12,-6.2 -2.6,-0.4 -10.4,-0.5 -23.3,-0.5 h -24.9 z"
   class="st0" />
			<path
   style="fill:#4a9abb"
   inkscape:connector-curvature="0"
   id="path4641"
   d="m 1254.8,805.1 v -66.6 l -57.9,-91.6 h 37.4 l 37.2,62.6 36.5,-62.6 h 36.8 l -58.2,91.8 v 66.4 z"
   class="st0" />
			<path
   style="fill:#4a9abb"
   inkscape:connector-curvature="0"
   id="path4643"
   d="m 1354.8,753.6 31.1,-3 c 1.9,10.4 5.7,18.1 11.4,23 5.7,4.9 13.4,7.3 23.1,7.3 10.3,0 18,-2.2 23.3,-6.5 5.2,-4.4 7.8,-9.4 7.8,-15.3 0,-3.7 -1.1,-6.9 -3.3,-9.5 -2.2,-2.6 -6,-4.9 -11.5,-6.9 -3.7,-1.3 -12.3,-3.6 -25.6,-6.9 -17.1,-4.2 -29.1,-9.5 -36,-15.6 -9.7,-8.7 -14.6,-19.3 -14.6,-31.8 0,-8.1 2.3,-15.6 6.9,-22.6 4.6,-7 11.2,-12.4 19.7,-16 8.6,-3.7 19,-5.5 31.1,-5.5 19.9,0 34.8,4.4 44.8,13.1 10,8.7 15.3,20.3 15.8,34.9 l -31.9,1.4 c -1.4,-8.1 -4.3,-14 -8.8,-17.5 -4.5,-3.6 -11.2,-5.3 -20.2,-5.3 -9.3,0 -16.5,1.9 -21.8,5.7 -3.4,2.4 -5.1,5.7 -5.1,9.8 0,3.7 1.6,6.9 4.7,9.6 4,3.4 13.8,6.9 29.4,10.6 15.5,3.7 27,7.5 34.5,11.4 7.4,3.9 13.3,9.3 17.5,16.1 4.2,6.8 6.3,15.2 6.3,25.2 0,9.1 -2.5,17.6 -7.6,25.5 -5,7.9 -12.2,13.8 -21.4,17.6 -9.2,3.8 -20.7,5.8 -34.4,5.8 -20,0 -35.4,-4.6 -46.1,-13.9 -10.6,-9.5 -17,-23 -19.1,-40.7 z"
   class="st0" />
			<path
   style="fill:#4a9abb"
   inkscape:connector-curvature="0"
   id="path4645"
   d="M 1548.1,805.1 V 673.7 h -46.9 v -26.8 h 125.7 v 26.8 h -46.8 v 131.4 z"
   class="st0" />
			<path
   style="fill:#4a9abb"
   inkscape:connector-curvature="0"
   id="path4647"
   d="m 1776,805.1 h -34.7 l -13.8,-35.9 h -63.2 l -13.1,35.9 h -33.9 l 61.6,-158.2 h 33.8 z m -58.8,-62.6 -21.8,-58.7 -21.4,58.7 z"
   class="st0" />
			<path
   style="fill:#4a9abb"
   inkscape:connector-curvature="0"
   id="path4649"
   d="M 1796,805.1 V 648.2 h 31.9 v 130.2 h 79.4 v 26.7 H 1796 Z"
   class="st0" />
		</g><g
   id="g4655">
			<path
   style="fill:#4a9abb"
   inkscape:connector-curvature="0"
   id="path4653"
   d="m 879.8,547.5 136.9,43.3 c -21,76.2 -55.9,132.8 -104.7,169.8 -48.8,37 -110.7,55.5 -185.7,55.5 -92.8,0 -169.1,-31.7 -228.9,-95 -59.8,-63.3 -89.7,-149.9 -89.7,-259.8 0,-116.2 30,-206.5 90.1,-270.8 60.1,-64.3 139.1,-96.4 237,-96.4 85.5,0 155,25.2 208.4,75.7 31.8,29.8 55.6,72.7 71.5,128.6 L 875,331.8 c -8.3,-36.2 -25.5,-64.8 -51.7,-85.7 -26.2,-21 -58.1,-31.4 -95.6,-31.4 -51.8,0 -93.9,18.6 -126.1,55.7 -32.3,37.1 -48.4,97.3 -48.4,180.5 0,88.3 15.9,151.1 47.7,188.6 31.8,37.5 73.1,56.2 124,56.2 37.5,0 69.8,-11.9 96.8,-35.7 26.9,-23.9 46.3,-61.4 58.1,-112.5 z"
   class="st0" />
		</g>
	<path
   class="st1"
   d="M 97.7,812.8"
   id="path4659"
   inkscape:connector-curvature="0"
   style="fill:none;stroke:#7a7a7a;stroke-width:8;stroke-linejoin:round;stroke-miterlimit:10" />
	<polygon
   class="st1"
   points="1327.9,96.4 501.1,96.8 101,812.1 916.3,812.1 "
   id="polygon4661"
   style="fill:none;stroke:#7a7a7a;stroke-width:8;stroke-linejoin:round;stroke-miterlimit:10" />
	<line
   class="st1"
   x1="101"
   y1="812.09998"
   x2="1327.9"
   y2="96.400002"
   id="line4663"
   style="fill:none;stroke:#7a7a7a;stroke-width:8;stroke-linejoin:round;stroke-miterlimit:10" />
	<polyline
   class="st1"
   points="494.3,812.1 501.1,96.8 916.3,812.1 914.8,96.4  "
   id="polyline4665"
   style="fill:none;stroke:#7a7a7a;stroke-width:8;stroke-linejoin:round;stroke-miterlimit:10" />
	<line
   class="st1"
   x1="501.10001"
   y1="96.800003"
   x2="1118"
   y2="461.39999"
   id="line4667"
   style="fill:none;stroke:#7a7a7a;stroke-width:8;stroke-linejoin:round;stroke-miterlimit:10" />
	<g
   id="g4685">
		<g
   id="g4683">
			<line
   class="st2"
   x1="1215.3"
   y1="292.29999"
   x2="1206.4"
   y2="286.60001"
   id="line4669"
   style="fill:none;stroke:#7a7a7a;stroke-width:8;stroke-linecap:round;stroke-linejoin:round" />
			<line
   class="st3"
   x1="1189.8"
   y1="276"
   x2="931.5"
   y2="111.4"
   id="line4671"
   style="fill:none;stroke:#7a7a7a;stroke-width:8;stroke-linecap:round;stroke-linejoin:round;stroke-dasharray:19.7581, 19.7581" />
			<polyline
   class="st2"
   points="923.2,106.1 914.3,100.4 905.3,105.7    "
   id="polyline4673"
   style="fill:none;stroke:#7a7a7a;stroke-width:8;stroke-linecap:round;stroke-linejoin:round" />
			<line
   class="st4"
   x1="887.09998"
   y1="116.4"
   x2="315.29999"
   y2="450.79999"
   id="line4675"
   style="fill:none;stroke:#7a7a7a;stroke-width:8;stroke-linecap:round;stroke-linejoin:round;stroke-dasharray:21.0313, 21.0313" />
			<polyline
   class="st2"
   points="306.2,456.1 297.1,461.4 306.3,466.6    "
   id="polyline4677"
   style="fill:none;stroke:#7a7a7a;stroke-width:8;stroke-linecap:round;stroke-linejoin:round" />
			<line
   class="st5"
   x1="324.5"
   y1="476.89999"
   x2="898.09998"
   y2="801.79999"
   id="line4679"
   style="fill:none;stroke:#7a7a7a;stroke-width:8;stroke-linecap:round;stroke-linejoin:round;stroke-dasharray:20.9277, 20.9277" />
			<line
   class="st2"
   x1="907.20001"
   y1="806.90002"
   x2="916.29999"
   y2="812.09998"
   id="line4681"
   style="fill:none;stroke:#7a7a7a;stroke-width:8;stroke-linecap:round;stroke-linejoin:round" />
		</g>
	</g>
	<g
   id="g4699">
		<g
   id="g4697">
			<line
   class="st2"
   x1="204.2"
   y1="627.59998"
   x2="212.89999"
   y2="633.40002"
   id="line4687"
   style="fill:none;stroke:#7a7a7a;stroke-width:8;stroke-linecap:round;stroke-linejoin:round" />
			<line
   class="st6"
   x1="230.5"
   y1="644.90002"
   x2="467.39999"
   y2="800.59998"
   id="line4689"
   style="fill:none;stroke:#7a7a7a;stroke-width:8;stroke-linecap:round;stroke-linejoin:round;stroke-dasharray:20.9999, 20.9999" />
			<polyline
   class="st2"
   points="476.2,806.3 485,812.1 494.1,806.8    "
   id="polyline4691"
   style="fill:none;stroke:#7a7a7a;stroke-width:8;stroke-linecap:round;stroke-linejoin:round" />
			<line
   class="st7"
   x1="512.20001"
   y1="796.20001"
   x2="1082.4"
   y2="461.70001"
   id="line4693"
   style="fill:none;stroke:#7a7a7a;stroke-width:8;stroke-linecap:round;stroke-linejoin:round;stroke-dasharray:20.987, 20.987" />
			<line
   class="st2"
   x1="1091.5"
   y1="456.39999"
   x2="1100.5"
   y2="451.10001"
   id="line4695"
   style="fill:none;stroke:#7a7a7a;stroke-width:8;stroke-linecap:round;stroke-linejoin:round" />
		</g>
	</g>
	<g
   id="g4709">
		<g
   id="g4707">
			<line
   class="st2"
   x1="1111.7"
   y1="457.70001"
   x2="1111.7"
   y2="447.20001"
   id="line4701"
   style="fill:none;stroke:#7a7a7a;stroke-width:8;stroke-linecap:round;stroke-linejoin:round" />
			<line
   class="st8"
   x1="1111.7"
   y1="427.20001"
   x2="1111.7"
   y2="117.3"
   id="line4703"
   style="fill:none;stroke:#7a7a7a;stroke-width:8;stroke-linecap:round;stroke-linejoin:round;stroke-dasharray:19.9943, 19.9943" />
			<line
   class="st2"
   x1="1111.7"
   y1="107.3"
   x2="1111.7"
   y2="96.800003"
   id="line4705"
   style="fill:none;stroke:#7a7a7a;stroke-width:8;stroke-linecap:round;stroke-linejoin:round" />
		</g>
	</g>
	<g
   id="g4719">
		<g
   id="g4717">
			<path
   class="st2"
   d="m 390.7,294.1 c 3.2,1.5 6.3,3 9.5,4.5"
   id="path4711"
   inkscape:connector-curvature="0"
   style="fill:none;stroke:#7a7a7a;stroke-width:8;stroke-linecap:round;stroke-linejoin:round" />
			<path
   class="st9"
   d="m 419.2,307.6 c 252.1,119.4 440.5,222 583.2,312.7"
   id="path4713"
   inkscape:connector-curvature="0"
   style="fill:none;stroke:#7a7a7a;stroke-width:8;stroke-linecap:round;stroke-linejoin:round;stroke-dasharray:21.0213, 21.0213" />
			<path
   class="st2"
   d="m 1011.3,625.9 c 3,1.9 5.9,3.8 8.8,5.7"
   id="path4715"
   inkscape:connector-curvature="0"
   style="fill:none;stroke:#7a7a7a;stroke-width:8;stroke-linecap:round;stroke-linejoin:round" />
		</g>
	</g>
	<g
   id="g4729">
		<g
   id="g4727">
			<line
   class="st2"
   x1="297.10001"
   y1="461.39999"
   x2="297.29999"
   y2="471.89999"
   id="line4721"
   style="fill:none;stroke:#7a7a7a;stroke-width:8;stroke-linecap:round;stroke-linejoin:round" />
			<line
   class="st10"
   x1="297.5"
   y1="494"
   x2="301.39999"
   y2="791.29999"
   id="line4723"
   style="fill:none;stroke:#7a7a7a;stroke-width:8;stroke-linecap:round;stroke-linejoin:round;stroke-dasharray:22.0243, 22.0243" />
			<line
   class="st2"
   x1="301.5"
   y1="802.29999"
   x2="301.70001"
   y2="812.79999"
   id="line4725"
   style="fill:none;stroke:#7a7a7a;stroke-width:8;stroke-linecap:round;stroke-linejoin:round" />
		</g>
	</g>
	<line
   class="st11"
   x1="505.29999"
   y1="90"
   x2="505.29999"
   y2="90"
   id="line4731"
   style="fill:#333333" />
	<polygon
   class="st11"
   points="515.7,122.7 500.6,104 489.9,124.6 477.8,116.6 491.7,99.6 470.1,97.9 472.7,83.6 495.7,90.3 493.2,66.8 507.7,66.8 505.3,90 527.8,81.8 531.3,95.9 509.6,99.1 526,112.5 "
   id="polygon4733"
   style="fill:#000000;fill-opacity:1" />
	<polygon
   class="st11"
   points="1342.9,122.7 1327.8,104 1317.1,124.6 1305,116.6 1318.9,99.6 1297.3,97.9 1299.9,83.6 1322.9,90.3 1320.4,66.8 1334.9,66.8 1332.6,90 1355,81.8 1358.5,95.9 1336.8,99.1 1353.2,112.5 "
   id="polygon4735"
   style="fill:#000000;fill-opacity:1" />
	<polygon
   class="st11"
   points="931.4,366.7 916.3,348 905.6,368.6 893.5,360.6 907.3,343.6 885.7,341.9 888.4,327.6 911.3,334.3 908.8,310.8 923.3,310.8 921,334 943.4,325.8 946.9,339.9 925.3,343.1 941.7,356.5 "
   id="polygon4737"
   style="fill:#000000;fill-opacity:1" />
	<polygon
   class="st11"
   points="514.8,602.4 499.7,583.7 489.1,604.3 477,596.3 490.8,579.3 469.2,577.7 471.9,563.4 494.8,570 492.3,546.5 506.8,546.5 504.5,569.8 526.9,561.6 530.4,575.7 508.8,578.8 525.2,592.2 "
   id="polygon4739"
   style="fill:#000000;fill-opacity:1" />
	<polygon
   class="st11"
   points="931.4,839.1 916.3,820.4 905.6,841 893.5,833 907.3,816 885.7,814.3 888.4,800.1 911.3,806.7 908.8,783.2 923.3,783.2 921,806.5 943.4,798.3 946.9,812.3 925.3,815.5 941.7,828.9 "
   id="polygon4741"
   style="fill:#000000;fill-opacity:1" />
	<polygon
   class="st11"
   points="112,839.8 96.8,821.1 86.2,841.7 74.1,833.7 87.9,816.7 66.3,815 69,800.7 91.9,807.4 89.4,783.9 103.9,783.9 101.6,807.1 124,798.9 127.5,813 105.9,816.2 122.3,829.6 "
   id="polygon4743"
   style="fill:#000000;fill-opacity:1" />
	<line
   class="st11"
   x1="505.29999"
   y1="90"
   x2="505.29999"
   y2="90"
   id="line4745"
   style="fill:#333333" />
</g>
</svg>